<?xml version="1.0" standalone="no"?>
<!DOCTYPE svg PUBLIC "-//W3C//DTD SVG 20010904//EN"
 "http://www.w3.org/TR/2001/REC-SVG-20010904/DTD/svg10.dtd">
<svg version="1.0" xmlns="http://www.w3.org/2000/svg"
 width="447.000000pt" height="333.000000pt" viewBox="0 0 447.000000 333.000000"
 preserveAspectRatio="xMidYMid meet">

<g transform="translate(0.000000,333.000000) scale(0.100000,-0.100000)"
fill="#000000" stroke="none">
<path d="M3021 2889 c-54 -38 -83 -101 -84 -178 0 -107 18 -123 83 -71 50 40
80 102 80 167 0 51 -16 113 -29 113 -5 0 -27 -14 -50 -31z"/>
<path d="M2415 2874 c-11 -3 -39 -14 -62 -26 -38 -20 -47 -21 -88 -10 -102 27
-164 0 -186 -81 -11 -40 -7 -128 7 -190 l7 -28 -47 29 c-61 39 -163 67 -211
58 -77 -15 -107 -90 -68 -171 l17 -35 -32 -28 c-56 -47 -56 -124 -1 -186 43
-50 111 -70 208 -62 74 6 75 5 51 -12 -84 -58 -127 -103 -157 -161 -37 -71
-41 -111 -15 -160 23 -46 73 -71 142 -71 53 0 57 -2 95 -45 68 -78 152 -89
203 -28 29 36 52 115 66 225 12 95 20 113 31 71 13 -53 67 -148 108 -191 74
-77 144 -99 207 -67 32 17 74 82 85 133 5 23 14 34 31 38 33 8 74 60 74 92 0
74 -41 136 -113 174 -22 10 -37 22 -34 24 3 3 34 11 70 19 120 25 194 81 204
152 7 51 -15 94 -62 123 -33 20 -35 25 -35 74 0 87 -54 136 -150 136 -64 0
-106 -18 -160 -67 l-43 -38 7 30 c4 17 9 62 12 100 4 56 2 77 -13 104 -29 56
-91 87 -148 75z m-91 -306 c3 -13 7 -61 10 -108 5 -94 12 -120 31 -120 7 0 23
-9 37 -20 l25 -19 79 34 c84 36 127 46 132 31 2 -5 -21 -17 -50 -26 -29 -9
-76 -29 -105 -43 -46 -24 -52 -31 -58 -67 -8 -47 0 -63 83 -158 59 -68 64 -97
6 -41 -27 26 -103 119 -120 147 -1 2 -11 -1 -23 -7 -11 -6 -32 -12 -46 -13
-32 -3 -62 -36 -112 -126 -23 -41 -39 -61 -41 -50 -3 18 25 79 66 141 23 34
24 41 12 60 -7 12 -16 35 -19 50 -6 26 -15 31 -95 57 -49 16 -93 33 -99 39
-23 23 5 22 70 -2 108 -41 121 -43 145 -18 11 12 31 27 45 32 21 8 24 14 20
38 -14 69 -20 211 -9 211 7 0 14 -10 16 -22z"/>
<path d="M2296 2265 c-7 -20 2 -42 20 -49 19 -7 55 29 48 49 -8 20 -60 20 -68
0z"/>
<path d="M1297 2696 c-27 -8 -51 -17 -54 -20 -9 -9 86 -115 117 -131 60 -31
219 -9 234 32 10 24 -29 76 -75 102 -52 29 -152 37 -222 17z"/>
<path d="M3118 2608 c-20 -12 -40 -29 -43 -37 -12 -32 75 -81 144 -81 40 0
142 51 139 69 -2 9 -27 28 -57 44 -68 34 -130 36 -183 5z"/>
<path d="M1108 2599 c-23 -13 -23 -42 0 -62 10 -10 21 -17 25 -17 11 0 37 31
37 45 0 14 -27 45 -38 45 -4 0 -15 -5 -24 -11z m37 -28 c7 -12 -12 -24 -25
-16 -11 7 -4 25 10 25 5 0 11 -4 15 -9z"/>
<path d="M932 2578 c-30 -30 3 -73 51 -66 25 3 35 41 17 64 -15 17 -52 18 -68
2z m56 -31 c2 -11 -3 -17 -16 -17 -20 0 -36 23 -24 34 11 12 37 1 40 -17z"/>
<path d="M3710 2500 c-15 -28 4 -60 36 -60 31 0 54 41 34 65 -18 21 -57 19
-70 -5z m50 -20 c0 -11 -7 -20 -15 -20 -8 0 -15 9 -15 20 0 11 7 20 15 20 8 0
15 -9 15 -20z"/>
<path d="M975 2427 c-19 -19 -37 -47 -40 -63 -13 -57 -15 -58 -46 -14 -32 44
-86 74 -116 63 -29 -10 -64 -45 -78 -79 -8 -20 -27 -38 -51 -50 -72 -35 -71
-102 2 -172 27 -25 40 -44 32 -46 -96 -28 -158 -73 -158 -115 0 -24 28 -61 56
-71 19 -7 24 -17 24 -43 0 -44 23 -74 65 -86 45 -12 88 0 136 38 l36 30 -5
-68 c-4 -55 -1 -75 16 -108 35 -67 89 -77 157 -29 21 15 45 21 82 21 41 0 57
5 77 24 41 38 31 92 -35 187 -31 46 -32 47 -8 40 98 -31 128 -36 168 -31 80
12 111 72 77 150 -9 22 -10 39 -3 62 8 25 6 37 -7 58 -24 36 -78 57 -122 49
l-35 -6 31 51 c18 28 34 69 37 91 5 34 1 43 -26 70 -24 25 -38 31 -65 29 -24
-2 -42 4 -65 24 -47 39 -93 37 -136 -6z m113 -214 c-1 -5 -20 -34 -42 -65 -30
-45 -37 -63 -32 -84 l7 -27 90 7 c58 4 89 3 89 -3 0 -13 -25 -18 -108 -25 -65
-4 -102 -24 -102 -54 0 -8 17 -45 37 -82 21 -38 34 -72 30 -76 -9 -10 -29 16
-68 93 -40 79 -69 88 -150 43 -53 -29 -89 -38 -89 -22 0 4 29 22 64 39 60 30
64 34 70 74 7 42 6 44 -39 82 -67 58 -57 78 12 22 40 -33 62 -45 77 -41 12 3
28 6 36 6 8 0 32 27 54 60 21 33 45 60 53 60 8 0 13 -3 11 -7z"/>
<path d="M943 2053 c-16 -6 -17 -39 -3 -48 13 -8 40 13 40 30 0 15 -19 24 -37
18z"/>
<path d="M3395 2429 c-23 -21 -39 -46 -46 -75 l-11 -43 -47 49 c-25 27 -57 52
-71 55 -36 8 -92 -31 -104 -73 -6 -22 -20 -39 -40 -49 -52 -26 -66 -44 -66
-82 0 -41 22 -79 63 -112 32 -25 28 -31 -30 -47 -56 -16 -103 -62 -103 -99 0
-31 27 -68 59 -78 14 -4 19 -14 18 -40 -1 -42 31 -80 75 -89 35 -7 103 20 132
53 29 32 34 26 25 -25 -15 -78 15 -163 66 -186 31 -14 66 -4 104 28 26 22 37
25 70 19 27 -4 49 -2 71 10 60 31 59 86 -4 185 -19 30 -33 56 -31 58 1 2 31
-7 66 -18 98 -33 176 -14 200 48 8 21 7 39 -6 78 -13 37 -15 57 -7 69 14 26
-4 70 -36 91 -16 11 -46 18 -74 18 -27 0 -48 1 -48 3 0 1 14 24 30 50 59 93
28 188 -60 182 -31 -3 -44 2 -64 24 -36 38 -84 37 -131 -4z m105 -228 c-5 -11
-15 -23 -20 -26 -5 -3 -21 -26 -36 -50 -21 -37 -23 -47 -14 -66 12 -21 16 -21
101 -15 53 4 89 3 89 -3 0 -13 -26 -21 -73 -21 -74 0 -111 -11 -130 -37 -19
-24 -19 -25 22 -95 43 -74 49 -92 29 -86 -6 2 -30 38 -53 79 -26 47 -48 75
-60 77 -11 2 -24 8 -29 12 -4 5 -31 -5 -60 -22 -70 -42 -96 -51 -96 -34 0 7
22 23 50 36 60 28 75 44 83 87 6 29 2 36 -43 74 -28 23 -50 46 -50 51 0 17 23
7 69 -32 41 -35 51 -39 83 -34 29 5 43 16 77 65 23 33 48 59 57 59 11 0 12 -4
4 -19z"/>
<path d="M3350 2045 c-15 -18 -6 -45 13 -45 8 0 20 7 27 15 10 12 10 18 0 30
-16 19 -24 19 -40 0z"/>
<path d="M1454 2392 c-53 -26 -134 -100 -134 -123 0 -7 17 -12 91 -25 62 -10
149 14 186 51 56 56 38 108 -42 120 -32 5 -53 0 -101 -23z"/>
<path d="M3891 2394 c-61 -22 -113 -58 -150 -104 -40 -50 -39 -66 5 -80 68
-23 167 5 235 67 41 37 86 110 74 121 -13 14 -122 11 -164 -4z"/>
<path d="M448 2159 c-22 -12 -23 -52 -3 -69 12 -10 21 -10 40 -2 31 14 34 56
6 72 -23 12 -22 12 -43 -1z m42 -33 c0 -15 -24 -28 -34 -19 -13 14 -5 33 14
33 11 0 20 -6 20 -14z"/>
<path d="M3852 2128 c-31 -31 3 -87 42 -72 26 10 32 55 11 71 -23 16 -37 17
-53 1z m43 -29 c0 -7 -8 -15 -17 -17 -18 -3 -25 18 -11 32 10 10 28 1 28 -15z"/>
<path d="M1664 2106 c-74 -32 -120 -156 -98 -264 6 -28 8 -30 34 -20 40 13
117 98 141 155 22 52 20 95 -8 125 -19 21 -28 22 -69 4z"/>
<path d="M440 1835 c-18 -21 2 -65 29 -65 22 0 51 25 51 44 0 34 -57 49 -80
21z m53 -12 c8 -7 -11 -33 -24 -33 -5 0 -9 9 -9 20 0 19 20 27 33 13z"/>
<path d="M2878 1789 c-44 -25 -3 -93 42 -69 26 14 26 56 1 70 -23 12 -22 12
-43 -1z m40 -32 c2 -12 -3 -17 -17 -17 -12 0 -21 6 -21 13 0 31 32 34 38 4z"/>
<path d="M3680 1775 c-26 -32 13 -81 48 -59 34 22 22 74 -18 74 -10 0 -23 -7
-30 -15z m46 -16 c8 -14 -11 -33 -25 -25 -11 7 -4 36 9 36 5 0 12 -5 16 -11z"/>
<path d="M3016 1323 c-3 -21 -24 -153 -46 -293 -41 -263 -59 -364 -65 -358 -2
2 -15 86 -30 188 -41 281 -78 432 -116 466 -18 16 -21 16 -36 2 -14 -15 -12
-29 25 -165 55 -200 90 -381 104 -538 6 -71 16 -133 21 -137 19 -12 48 13 68
56 21 49 44 180 59 351 6 66 24 169 40 230 49 188 49 235 0 235 -13 0 -20 -10
-24 -37z"/>
<path d="M799 1337 c-57 -28 -84 -232 -69 -511 13 -227 48 -323 130 -347 32
-10 44 -9 76 7 97 48 129 187 113 497 -8 169 -15 202 -58 269 -44 69 -139 111
-192 85z m123 -77 c38 -30 45 -60 58 -253 15 -218 4 -348 -36 -433 -20 -42
-57 -59 -77 -36 -61 70 -84 253 -69 539 7 136 12 166 27 183 23 25 65 26 97 0z"/>
<path d="M2103 1335 c-33 -23 -53 -98 -65 -247 -19 -234 10 -477 68 -566 9
-13 31 -30 51 -38 70 -30 138 10 174 104 20 51 23 79 27 273 4 241 -5 306 -56
389 -44 71 -152 118 -199 85z m129 -75 c38 -29 45 -60 58 -255 9 -136 9 -203
1 -274 -16 -130 -49 -201 -93 -201 -21 0 -53 48 -68 100 -22 76 -32 265 -23
437 7 146 12 175 27 192 24 26 66 27 98 1z"/>
<path d="M4180 1337 c-32 -16 -66 -78 -75 -134 -10 -69 12 -149 78 -275 50
-97 61 -128 65 -179 9 -128 -33 -216 -98 -207 -42 6 -58 -14 -31 -41 25 -25
40 -26 85 -7 73 30 110 117 105 244 -4 77 -7 87 -73 217 -64 125 -70 142 -70
198 0 87 19 121 69 127 37 5 42 10 37 38 -2 9 -46 32 -60 32 -4 0 -18 -6 -32
-13z"/>
<path d="M244 1298 c-14 -27 -17 -82 -21 -372 -6 -404 -1 -444 59 -421 10 4
12 69 10 347 -2 189 -1 340 2 337 23 -23 209 -556 220 -631 4 -25 13 -51 21
-58 17 -14 62 -3 69 17 17 43 28 239 29 503 l2 295 -25 0 -25 0 -6 -229 c-9
-299 -19 -460 -29 -449 -5 4 -36 105 -70 222 -117 408 -186 536 -236 439z"/>
<path d="M1182 1322 c-8 -6 -13 -53 -17 -158 -2 -82 -8 -207 -14 -279 -5 -71
-13 -189 -17 -262 l-7 -132 28 -13 c48 -22 51 -5 60 289 4 148 10 293 14 323
l6 55 27 -95 c42 -146 85 -331 93 -396 8 -65 18 -84 45 -84 37 0 69 88 142
383 l43 172 7 -170 c4 -93 9 -244 12 -334 3 -129 7 -166 19 -178 37 -37 67 12
56 91 -4 28 -10 210 -13 404 -4 193 -9 358 -12 366 -10 25 -47 28 -66 5 -24
-28 -72 -180 -119 -379 -22 -91 -42 -172 -45 -180 -3 -8 -26 54 -50 139 -51
179 -109 350 -136 404 -18 37 -32 44 -56 29z"/>
<path d="M1786 1307 c-15 -22 -16 -68 -14 -416 3 -335 5 -393 18 -401 20 -13
146 -13 171 0 50 27 3 61 -73 53 -32 -4 -46 -2 -50 8 -3 8 -3 98 0 201 l5 187
46 3 c42 3 46 5 46 28 0 23 -4 25 -47 28 -37 2 -48 7 -49 20 -1 49 3 237 5
240 2 1 24 -2 50 -9 36 -9 49 -9 61 1 38 31 -4 63 -102 76 -47 6 -52 4 -67
-19z"/>
<path d="M2472 1313 c-5 -10 -12 -199 -16 -419 -6 -327 -5 -402 6 -405 7 -3
56 -4 108 -4 95 0 95 0 95 25 0 23 -4 25 -60 30 -33 3 -65 8 -71 12 -21 14
-23 68 -15 413 4 187 6 346 3 353 -6 18 -40 15 -50 -5z"/>
<path d="M3130 1320 c-24 -15 1 -44 41 -48 19 -2 37 -9 41 -14 3 -6 6 -164 5
-350 -1 -311 -2 -338 -18 -338 -22 0 -43 -26 -35 -45 9 -24 204 -17 220 7 16
26 -6 42 -53 40 l-39 -2 -7 153 c-3 83 -4 242 -1 352 l5 200 43 5 c35 4 43 9
43 25 0 19 -8 20 -115 23 -63 1 -122 -2 -130 -8z"/>
<path d="M3463 1318 c-12 -16 -2 -796 10 -815 5 -8 30 -13 61 -13 45 0 60 5
99 35 90 69 122 186 115 430 -3 120 -6 135 -34 195 -17 36 -45 82 -63 102 -54
62 -162 99 -188 66z m123 -65 c61 -39 94 -165 94 -360 0 -196 -28 -296 -91
-329 -17 -8 -33 -13 -36 -10 -15 14 -30 696 -16 709 10 11 22 8 49 -10z"/>
<path d="M3857 1313 c-16 -18 -17 -53 -17 -411 0 -342 2 -393 16 -406 22 -22
156 -22 178 -1 34 34 -2 56 -77 48 -24 -3 -47 -1 -51 5 -3 5 -3 95 1 200 l6
191 46 3 c42 3 46 5 46 28 0 22 -5 25 -45 28 -24 2 -48 8 -51 14 -6 9 0 239 6
246 1 1 23 -3 49 -10 39 -10 48 -10 61 3 33 33 -7 62 -103 75 -39 5 -50 3 -65
-13z"/>
</g>
</svg>
